<?xml version="1.0" standalone="no"?>
<!DOCTYPE svg PUBLIC "-//W3C//DTD SVG 20010904//EN"
 "http://www.w3.org/TR/2001/REC-SVG-20010904/DTD/svg10.dtd">
<svg version="1.0" xmlns="http://www.w3.org/2000/svg"
 width="2621.000000pt" height="434.000000pt" viewBox="0 0 2621.000000 434.000000"
 preserveAspectRatio="xMidYMid meet">

<g transform="translate(0.000000,434.000000) scale(0.100000,-0.100000)"
fill="#000000" stroke="none">
<path d="M16480 2260 c0 -1469 2 -1660 15 -1660 13 0 15 191 15 1660 0 1469
-2 1660 -15 1660 -13 0 -15 -191 -15 -1660z"/>
<path d="M21910 3100 l0 -500 500 0 500 0 -2 498 -3 497 -497 3 -498 2 0 -500z"/>
<path d="M23078 3018 l-3 -583 -582 -3 -583 -2 0 -165 0 -165 583 -2 582 -3 3
-583 2 -582 163 2 162 3 3 583 2 582 1080 0 1080 0 0 165 0 165 -1080 0 -1080
0 0 585 0 585 -165 0 -165 0 -2 -582z"/>
<path d="M23580 3100 l0 -500 995 0 995 0 0 500 0 500 -995 0 -995 0 0 -500z"/>
<path d="M17220 3160 l0 -400 827 -2 828 -3 20 -37 c16 -30 17 -40 7 -62 l-12
-26 -835 0 -835 0 0 -400 0 -400 835 0 835 0 12 -26 c10 -22 9 -32 -7 -62
l-20 -37 -828 -3 -827 -2 0 -395 0 -395 1985 0 1985 0 0 395 0 395 -826 2
-825 3 -20 35 c-16 29 -18 41 -10 63 l11 27 835 0 835 0 0 400 0 400 -835 0
-835 0 -11 27 c-8 22 -6 34 10 63 l20 35 831 3 830 2 -2 398 -3 397 -1987 3
-1988 2 0 -400z m1528 -78 c82 -96 153 -213 159 -264 3 -24 11 -54 18 -68 12
-24 10 -50 -4 -50 -3 0 -15 16 -25 35 -10 19 -27 37 -37 40 -27 9 -61 57 -108
151 -42 85 -86 224 -71 224 5 0 35 -31 68 -68z m972 -12 c-33 -110 -106 -246
-156 -287 -23 -20 -47 -46 -53 -60 -12 -27 -31 -23 -31 7 0 10 -3 20 -7 23 -5
2 -3 2 4 1 17 -4 24 9 28 57 5 43 46 126 98 194 38 50 130 146 135 141 2 -2
-6 -36 -18 -76z m-515 -740 c13 0 15 47 15 348 1 237 4 342 11 330 22 -39 50
-179 56 -279 6 -117 -7 -234 -38 -336 l-20 -64 21 -26 c14 -18 20 -40 20 -73
0 -33 -6 -55 -20 -73 l-21 -26 20 -64 c31 -102 44 -219 38 -336 -6 -100 -34
-240 -56 -279 -7 -12 -10 93 -11 331 0 302 -2 347 -15 347 -13 0 -15 -46 -16
-347 l-1 -348 -24 74 c-53 160 -54 382 -4 545 l22 69 -21 38 c-12 20 -21 51
-21 69 0 18 9 49 21 69 l21 38 -22 69 c-49 161 -49 376 2 544 l23 75 3 -347
c2 -300 4 -348 17 -348z m-255 420 c0 -5 -2 -10 -4 -10 -3 0 -8 5 -11 10 -3 6
-1 10 4 10 6 0 11 -4 11 -10z m-17 -1004 c4 -10 -141 -281 -168 -314 -1 -1 -9
0 -18 3 -12 5 3 38 76 166 51 87 95 159 98 159 4 0 9 -6 12 -14z m659 -149
c48 -85 83 -156 78 -161 -14 -15 -26 0 -105 138 -42 74 -82 133 -88 132 -7 -2
-9 -1 -4 1 4 3 7 13 7 22 0 20 11 34 19 25 3 -3 45 -74 93 -157z m-642 113 c0
-5 -5 -10 -11 -10 -5 0 -7 5 -4 10 3 6 8 10 11 10 2 0 4 -4 4 -10z"/>
<path d="M773 3430 c-43 -10 -79 -34 -100 -67 -17 -25 -18 -72 -21 -585 l-3
-558 343 0 344 0 12 89 c82 608 667 1021 1265 895 100 -21 236 -75 328 -130
94 -56 230 -179 300 -272 101 -134 178 -321 201 -493 l12 -89 341 2 340 3 3
529 c1 341 -1 542 -8 567 -16 60 -53 96 -111 108 -58 13 -3193 14 -3246 1z"/>
<path d="M7195 3230 c-221 -45 -383 -213 -417 -432 -30 -197 59 -402 219 -504
201 -130 507 -115 711 35 l42 31 0 220 0 220 -230 0 -230 0 0 -101 0 -100 98
2 97 2 0 -64 0 -63 -45 -18 c-56 -21 -153 -23 -211 -3 -178 61 -236 303 -108
449 60 67 108 90 194 90 55 -1 84 -7 132 -29 35 -15 68 -34 74 -41 6 -8 17
-14 24 -14 7 0 47 42 89 93 l77 92 -28 23 c-48 41 -185 101 -253 112 -75 11
-177 11 -235 0z"/>
<path d="M11566 3229 c-72 -11 -150 -45 -199 -88 -77 -68 -113 -200 -84 -302
33 -112 113 -167 326 -224 72 -19 145 -42 161 -50 50 -26 62 -74 25 -105 -63
-52 -266 -15 -386 71 -26 18 -33 19 -44 8 -35 -36 -135 -162 -135 -169 0 -5
27 -26 60 -49 111 -73 244 -111 400 -111 149 0 242 32 321 110 56 56 79 118
79 212 0 162 -84 236 -342 303 -155 40 -192 59 -196 101 -2 21 4 36 19 50 47
42 221 15 320 -51 l38 -25 61 86 c34 48 64 92 66 99 11 27 -109 94 -213 119
-78 20 -205 26 -277 15z"/>
<path d="M4818 2720 l167 -500 120 0 120 0 97 278 c53 152 99 277 103 277 4 0
51 -125 104 -277 l96 -278 122 0 122 0 161 488 c89 268 163 493 165 500 3 9
-29 12 -138 12 l-142 0 -85 -285 c-47 -157 -87 -285 -90 -285 -3 1 -47 129
-98 286 l-94 285 -121 -3 -121 -3 -86 -265 c-98 -301 -99 -304 -105 -299 -2 3
-42 131 -88 284 l-85 280 -145 3 -145 3 166 -501z"/>
<path d="M7910 2720 l0 -501 135 3 135 3 0 495 0 495 -135 3 -135 3 0 -501z"/>
<path d="M8380 2720 l0 -500 400 0 400 0 0 115 0 115 -265 0 -265 0 0 85 0 85
240 0 240 0 0 105 0 105 -240 0 -240 0 0 80 0 80 265 0 265 0 0 115 0 115
-400 0 -400 0 0 -500z"/>
<path d="M9340 2720 l0 -500 135 0 134 0 3 153 3 152 60 3 60 2 103 -155 102
-155 155 0 c85 0 155 2 155 6 0 3 -52 81 -115 174 l-115 168 44 26 c59 34 121
107 140 163 21 60 21 186 0 246 -34 99 -142 183 -268 206 -34 6 -176 11 -328
11 l-268 0 0 -500z m546 245 c65 -27 83 -128 32 -182 -32 -34 -80 -45 -198
-41 l-105 3 -3 118 -3 117 121 0 c83 0 131 -5 156 -15z"/>
<path d="M10310 3100 l0 -120 150 0 150 0 2 -377 3 -378 135 0 135 0 3 378 2
377 150 0 150 0 0 120 0 120 -440 0 -440 0 0 -120z"/>
<path d="M12240 2720 l0 -500 400 0 400 0 0 115 0 115 -265 0 -265 0 0 85 0
85 240 0 240 0 0 105 0 105 -240 0 -240 0 0 80 0 80 265 0 265 0 0 115 0 115
-400 0 -400 0 0 -500z"/>
<path d="M13192 2723 l3 -498 133 -3 132 -3 0 272 c0 166 4 269 9 267 6 -1 87
-102 181 -223 95 -121 190 -241 212 -267 l39 -48 115 0 114 0 0 500 0 500
-130 0 -130 0 0 -260 c0 -143 -3 -260 -7 -260 -5 1 -98 116 -208 258 l-200
257 -133 3 -132 3 2 -498z"/>
<path d="M2775 2585 c-53 -21 -81 -49 -102 -104 -16 -40 -18 -82 -18 -321 0
-274 0 -275 25 -324 31 -61 74 -86 148 -86 59 0 83 9 125 48 l27 26 0 -37 0
-37 98 0 97 0 0 220 0 220 -138 0 -138 0 3 -67 3 -68 38 -3 37 -3 0 -65 c0
-86 -10 -104 -60 -104 -68 0 -70 8 -70 292 0 235 1 249 20 268 25 25 72 26 93
2 10 -11 17 -40 19 -77 l3 -60 94 0 94 0 -2 85 c-3 109 -20 146 -87 180 -42
22 -63 25 -159 27 -78 2 -121 -2 -150 -12z"/>
<path d="M1620 2568 c0 -13 23 -198 50 -413 28 -214 50 -393 50 -398 0 -4 60
-6 132 -5 l133 3 51 313 c28 172 54 315 58 319 3 3 6 3 6 -1 0 -9 97 -563 106
-608 l6 -28 129 0 c71 0 129 2 129 4 0 2 23 189 50 415 28 226 50 414 50 416
0 3 -42 5 -94 5 l-94 0 -6 -47 c-3 -27 -13 -158 -21 -293 -9 -135 -18 -261
-22 -280 l-6 -35 -8 30 c-4 17 -31 164 -60 328 l-53 298 -115 -3 -116 -3 -31
-205 c-17 -113 -39 -258 -49 -322 -9 -65 -20 -118 -24 -118 -4 0 -21 145 -37
323 l-29 322 -93 3 c-90 3 -92 2 -92 -20z"/>
<path d="M6160 2360 l0 -140 140 0 140 0 0 140 0 140 -140 0 -140 0 0 -140z"/>
<path d="M650 1583 c0 -349 4 -542 11 -568 14 -51 53 -92 98 -105 52 -14 3213
-13 3266 1 51 14 92 53 105 98 6 22 10 249 10 569 l0 532 -342 0 -343 0 -17
-103 c-20 -123 -46 -204 -99 -311 -187 -374 -579 -605 -993 -583 -415 22 -777
280 -932 663 -32 78 -74 254 -74 308 l0 26 -345 0 -345 0 0 -527z m3208 -180
c68 -51 89 -130 53 -200 -53 -105 -185 -124 -260 -38 -70 80 -43 208 54 251
40 19 120 12 153 -13z"/>
<path d="M3703 1390 c-84 -51 -95 -163 -22 -224 83 -70 206 -24 224 84 19 110
-107 198 -202 140z m127 -50 c25 -25 25 -41 1 -71 -19 -23 -19 -24 1 -51 l19
-28 -24 0 c-15 0 -28 9 -37 25 -7 14 -22 25 -32 25 -13 0 -18 -7 -18 -25 0
-18 -5 -25 -20 -25 -18 0 -20 7 -20 85 l0 85 55 0 c42 0 60 -5 75 -20z"/>
<path d="M3747 1324 c-4 -4 -7 -16 -7 -26 0 -13 8 -18 30 -18 23 0 30 4 30 20
0 11 -4 20 -9 20 -5 0 -16 2 -23 5 -8 3 -17 2 -21 -1z"/>
<path d="M21912 1433 l3 -498 495 0 495 0 3 498 2 497 -500 0 -500 0 2 -497z"/>
<path d="M23580 1430 l0 -500 995 0 995 0 0 500 0 500 -995 0 -995 0 0 -500z"/>
<path d="M8115 1856 c-197 -49 -323 -243 -286 -442 21 -114 73 -198 159 -252
138 -88 328 -81 483 18 l49 32 -2 157 -3 156 -157 3 -158 3 0 -61 0 -60 95 0
95 0 0 -70 0 -70 -42 -21 c-65 -34 -183 -38 -242 -10 -122 59 -177 208 -126
344 31 81 107 146 192 162 51 10 138 -11 192 -46 l47 -29 27 32 c55 64 55 65
25 86 -103 72 -230 97 -348 68z"/>
<path d="M10705 1857 c-189 -50 -305 -209 -293 -402 13 -195 158 -339 356
-352 234 -16 415 150 415 382 0 212 -145 364 -360 380 -40 3 -89 -1 -118 -8z
m161 -122 c167 -49 233 -252 134 -409 -74 -116 -252 -140 -361 -49 -78 66
-110 195 -74 303 23 70 86 134 152 154 62 19 89 19 149 1z"/>
<path d="M14100 1859 c-289 -57 -407 -416 -209 -634 121 -131 321 -163 482
-77 67 36 141 120 167 189 111 297 -129 583 -440 522z m189 -139 c80 -41 131
-120 139 -216 13 -166 -107 -294 -265 -281 -174 14 -277 188 -213 360 52 139
210 204 339 137z"/>
<path d="M9898 1851 c-95 -31 -152 -107 -152 -205 1 -121 54 -170 245 -221
107 -28 151 -52 163 -87 37 -104 -119 -158 -259 -88 -33 16 -70 37 -81 45 -21
15 -23 14 -58 -26 -20 -24 -36 -46 -36 -51 0 -13 88 -66 150 -89 74 -29 214
-32 282 -6 116 45 170 180 116 287 -31 61 -83 92 -220 133 -137 40 -164 55
-173 98 -8 36 15 75 56 97 39 21 133 8 202 -27 67 -34 72 -33 109 27 21 34 21
35 2 50 -58 44 -129 66 -224 69 -52 1 -107 -2 -122 -6z"/>
<path d="M15698 1851 c-95 -31 -152 -107 -152 -205 1 -120 56 -171 235 -217
144 -36 192 -76 175 -143 -17 -69 -156 -90 -257 -38 -30 15 -66 35 -80 45
l-27 18 -36 -42 c-20 -24 -36 -46 -36 -51 0 -13 88 -66 150 -89 74 -29 214
-32 282 -6 113 44 168 175 119 283 -31 69 -81 97 -277 153 -84 24 -112 45
-120 87 -9 45 36 93 93 101 54 7 131 -12 186 -47 l44 -27 34 49 c33 49 33 50
14 65 -59 45 -129 67 -225 70 -52 1 -107 -2 -122 -6z"/>
<path d="M4830 1480 l0 -370 276 2 277 3 0 55 0 55 -212 3 -211 2 0 100 0 100
185 0 185 0 0 60 0 60 -185 0 -185 0 0 95 0 95 210 0 210 0 0 55 0 55 -275 0
-275 0 0 -370z"/>
<path d="M5540 1480 l0 -370 65 0 65 0 2 262 3 261 203 -261 203 -262 54 0 55
0 0 370 0 370 -65 0 -65 0 -2 -252 -3 -252 -195 252 -195 252 -62 0 -63 0 0
-370z"/>
<path d="M6380 1480 l0 -370 275 0 275 0 0 60 0 60 -210 0 -210 0 0 100 0 100
185 0 185 0 0 60 0 60 -185 0 -185 0 0 95 0 95 210 0 210 0 0 55 0 55 -275 0
-275 0 0 -370z"/>
<path d="M7090 1480 l0 -370 65 0 65 0 0 130 0 130 83 0 82 -1 90 -129 90
-130 79 0 c61 0 76 3 69 13 -6 6 -52 70 -102 140 l-91 128 34 14 c88 37 138
113 139 210 1 109 -51 184 -152 220 -34 11 -91 15 -247 15 l-204 0 0 -370z
m376 249 c82 -21 119 -103 79 -178 -24 -48 -68 -61 -204 -61 l-121 0 0 125 0
125 101 0 c55 0 120 -5 145 -11z"/>
<path d="M8620 1844 c0 -3 63 -102 141 -220 l140 -214 2 -147 2 -148 68 -3 67
-3 0 152 0 153 145 218 145 219 -77 -3 -77 -3 -100 -157 c-55 -86 -103 -155
-107 -153 -3 3 -50 74 -104 160 l-97 155 -74 0 c-41 0 -74 -3 -74 -6z"/>
<path d="M11340 1480 l0 -370 260 0 260 0 0 60 0 60 -195 0 -195 0 0 310 0
310 -65 0 -65 0 0 -370z"/>
<path d="M11990 1602 c0 -278 7 -320 63 -394 20 -27 55 -54 92 -73 54 -28 67
-30 160 -30 93 0 106 2 160 30 37 19 72 46 92 73 56 74 63 116 63 394 l0 248
-65 0 -65 0 0 -248 c0 -240 -1 -250 -23 -292 -52 -99 -213 -122 -290 -43 -53
56 -57 82 -57 343 l0 240 -65 0 -65 0 0 -248z"/>
<path d="M12750 1790 l0 -60 115 0 115 0 2 -307 3 -308 65 0 65 0 3 308 2 307
115 0 115 0 0 60 0 60 -300 0 -300 0 0 -60z"/>
<path d="M13500 1480 l0 -370 65 0 65 0 0 370 0 370 -65 0 -65 0 0 -370z"/>
<path d="M14730 1480 l0 -371 63 3 62 3 5 256 5 257 200 -259 200 -259 53 0
52 0 0 370 0 370 -65 0 -65 0 0 -251 0 -252 -193 249 -193 249 -62 3 -62 3 0
-371z"/>
</g>
</svg>
