<svg width="100" height="100" xmlns="http://www.w3.org/2000/svg">
  <defs>
    <pattern id="solar-pattern" width="100" height="100" patternUnits="userSpaceOnUse">
      <!-- Sun -->
      <circle cx="20" cy="20" r="8" fill="none" stroke="#04743C" stroke-width="1" opacity="0.6"/>
      <circle cx="20" cy="20" r="4" fill="#04743C" opacity="0.3"/>
      
      <!-- Solar panel -->
      <rect x="60" y="10" width="20" height="25" rx="1" fill="none" stroke="#04743C" stroke-width="1" opacity="0.5"/>
      <line x1="60" y1="17.5" x2="80" y2="17.5" stroke="#04743C" stroke-width="0.5" opacity="0.5"/>
      <line x1="60" y1="25" x2="80" y2="25" stroke="#04743C" stroke-width="0.5" opacity="0.5"/>
      <line x1="70" y1="10" x2="70" y2="35" stroke="#04743C" stroke-width="0.5" opacity="0.5"/>
      
      <!-- Leaf -->
      <path d="M25,60 C25,70 35,80 45,70 C55,60 45,50 35,60 C25,70 25,60 25,60 Z" fill="none" stroke="#04743C" stroke-width="1" opacity="0.4"/>
      
      <!-- Lightning bolt -->
      <path d="M75,55 L70,65 L78,65 L73,75" fill="none" stroke="#04743C" stroke-width="1.5" stroke-linecap="round" stroke-linejoin="round" opacity="0.6"/>
      
      <!-- Wave (energy) -->
      <path d="M10,90 C15,85 20,95 25,90 C30,85 35,95 40,90" fill="none" stroke="#04743C" stroke-width="1" opacity="0.5"/>
      
      <!-- Battery -->
      <rect x="60" y="80" width="14" height="10" rx="1" fill="none" stroke="#04743C" stroke-width="1" opacity="0.6"/>
      <rect x="74" y="83" width="2" height="4" rx="1" fill="#04743C" opacity="0.3"/>
      <line x1="64" y1="85" x2="70" y2="85" stroke="#04743C" stroke-width="1.5" opacity="0.6"/>
      <line x1="67" y1="82" x2="67" y2="88" stroke="#04743C" stroke-width="1.5" opacity="0.6"/>
    </pattern>
  </defs>
  
  <rect width="100%" height="100%" fill="url(#solar-pattern)"/>
</svg> 