<svg xmlns="http://www.w3.org/2000/svg" width="24" height="24" viewBox="0 0 24 24" fill="none" stroke="#16a34a" stroke-width="2" stroke-linecap="round" stroke-linejoin="round">
  <path d="M2 22c1.25-1.25 2.5-2.5 3.75-2.5 1.25 0 1.25 1.25 2.5 1.25 1.25 0 1.25-1.25 2.5-1.25 1.25 0 1.25 1.25 2.5 1.25 1.25 0 1.25-1.25 2.5-1.25 1.25 0 2.5 1.25 3.75 2.5"></path>
  <path d="M19.13 5.09C15.22 9.14 10 10.44 2.67 11.4a.2.2 0 0 0-.16.17 2.32 2.32 0 0 0 1.17 2.25c6.91 3.46 14-1.24 14-6.35 0-1.33-.28-2.64-.84-3.91a.122.122 0 0 0-.21 0Z"></path>
</svg> 